<svg width="828.12" height="704.92" version="1.1" xml:space="preserve" xmlns="http://www.w3.org/2000/svg"><path d="m479.01 689.07c-6.711-8.5316-3.885-23.925 7.3448-40.009 6.5227-9.3421 8.5394-15.013 8.5902-24.157 0.0426-7.6638 3.5823-13.54 13.454-22.332 12.603-11.225 19.377-25.66 27.763-59.158 1.4627-5.842 3.7519-13.996 5.0871-18.12 1.3352-4.1238 3.6186-11.714 5.074-16.868 3.4-12.038 10.2-26.342 15.274-32.131 2.1902-2.4986 9.1468-8.3594 15.459-13.024 7.5348-5.5681 12.551-10.323 14.603-13.842 4.8433-8.3049 12.499-25.931 11.637-26.793-1.5593-1.5593-8.3533 2.4805-20.353 12.102-7.9026 6.3364-14.943 10.848-19.713 12.631-5.211 1.9488-9.1123 4.5679-13.104 8.7965-6.1064 6.47-9.695 7.4939-13.096 3.7364-3.1873-3.522-2.5026-8.2907 2.8215-19.652 6.2882-13.419 9.5502-17.551 18.687-23.674 8.5052-5.6997 10.366-8.3553 14.623-20.874 5.836-17.159 15.768-22.418 29.015-15.365 3.2277 1.7182 6.9977 3.1298 8.3778 3.1367 4.7076 0.0237 18.441-5.5735 20.177-8.2237 0.95053-1.4507 2.236-8.0044 2.8565-14.563 0.75928-8.0254 2.2164-14.528 4.4549-19.88 8.5121-20.354 8.5304-20.446 6.8585-34.822-1.2954-11.138-1.2334-14.789 0.41019-24.158 2.9914-17.05 8.1857-26.597 23.763-43.675 10.15-11.127 13.401-15.549 14.076-19.148 0.93499-4.9839-0.15067-31.713-1.4793-36.422-1.1495-4.0738-2.3541-3.5107-6.0757 2.84-4.3497 7.4223-17.489 21.394-23.793 25.3-2.7492 1.7039-7.9249 5.3259-11.502 8.0491-5.5424 4.2198-6.8044 5.9872-8.5417 11.963-5.1496 17.714-13.988 29.16-31.571 40.883-7.3786 4.9196-12.593 9.4637-15.164 13.215-4.5938 6.7023-11.219 22.862-11.281 27.514-0.0519 3.908 3.9652 15.954 6.7245 20.165 2.0534 3.134 1.5825 4.7101-1.4071 4.7101-0.94651 0-5.0995-2.8117-9.2288-6.2482-7.9932-6.652-11.313-7.5084-17.236-4.4457-5.2843 2.7326-16.431 15.397-22.408 25.459-2.9335 4.9379-6.1521 8.978-7.1524 8.978-2.283 0-2.3697 0.90262 1.2546-13.047 3.984-15.333 7.1237-21.29 18.763-35.593 5.2701-6.4765 10.89-14.357 12.489-17.512 4.192-8.2727 15.494-35.391 18.797-45.104 3.4554-10.159 7.8016-17.201 16.173-26.204 24.065-25.879 32.929-37.075 36.9-46.615 5.6516-13.576 15.262-28.965 26.508-42.45 5.2891-6.3415 12.037-14.569 14.996-18.283 12.466-15.65 19.098-17.962 48.492-16.903 21.374 0.77084 24.635 0.03699 26.766-6.022 1.0088-2.8684 0.57569-4.2373-2.8494-9.0065-8.1518-11.351-12.635-25.103-12.648-38.792-0.014-15.598 4.7185-25.657 14.876-31.622 5.1095-3.0004 7.224-3.4079 19.77-3.8105 0 0 8.9592 0.2885 12.471 1.2847 3.5116 0.99628 4.8222 1.4298 6.2553 2.8628 1.4331 1.4331 4.5874 6.4189 6.0012 11.378 1.162 4.0759 3.7378 10.291 5.7238 13.811 3.2609 5.7799 3.6109 7.5222 3.6109 17.975 0 14.781-1.6976 20.277-8.3457 27.02-5.7509 5.8335-7.0626 9.0047-6.4296 15.545 0.35106 3.6274 1.9723 5.3925 12.276 13.366 17.434 13.49 20.515 20.013 16.873 35.712-5.7979 24.984-16.688 44.336-36.158 64.255-10.351 10.59-12.356 13.509-23.611 34.365-6.7646 12.535-12.891 24.03-13.616 25.544-1.1628 2.4309-0.34785 3.7969 7.0001 11.733 20.255 21.879 41.128 55.237 43.922 70.201 0.48358 2.5895 0.47675 8.4665-0.0151 13.06-0.7584 7.0819-1.4928 8.9484-4.8293 12.275-6.8582 6.8369-25.179 12.375-64.199 19.406l-22.775 4.1038-8.9974 10.481c-4.9485 5.7644-11.761 12.965-15.139 16.003-3.3778 3.0369-8.3862 8.9948-11.13 13.24-5.906 9.1378-15.649 19.589-27.342 29.329-6.8075 5.6706-8.7247 8.0692-9.7711 12.225-1.6299 6.4728-10.835 21.869-21.372 35.746-10.031 13.21-33 41.835-37.601 46.861-5.7982 6.3329-15.863 24.69-23.796 43.401-4.1574 9.8069-10.563 23.489-14.235 30.405-3.6714 6.916-8.6659 17.511-11.099 23.544-8.7704 21.75-12.282 25.156-27.398 26.567-7.5393 0.70403-8.0689 0.57243-10.589-2.6314z" fill="#366092"/><path d="m564.03 260.47c-118.36 4.4375-430.18 44.788-529.25 184.25 1.3074-1.2904 2.6652-2.489 4.0312-3.5938 101.24-121.44 390.47-165.64 521.57-171.69 1.2255-2.9859 2.4343-5.9818 3.6562-8.9688zm-496.97 170.25c-15.686-0.16647-34.424 10.126-45.031 33.312-7.9791 17.44-12.616 41.654 0.34375 50.031 20.62 13.329 64.934-13.655 91.781-14.844 35.12-1.5562 5.2438 121.23 52.375 121.25-30.13-7.875-8.8325-114.3-42.062-127.56-33.301-13.294-80.6 30.822-100.78 17.375-14.828-9.88 1.292-40.04 10.351-51.78 12.401-16.08 43.904-35.53 58.813-9.53-3.236-11.64-13.581-18.12-25.782-18.25zm99.469 189.75c12.651 3.2016 23.09-9.6345 32.25-27.969 0.5587-1.1183 1.1069-2.2806 1.6562-3.4375-0.55254 1.1642-1.0942 2.3123-1.6562 3.4375-0.40776 0.81626-0.80575 1.644-1.2188 2.4375v23.594c0.14588 0.29907 0.28919 0.58447 0.4375 0.875 0.20385 0.4004 0.41686 0.80419 0.625 1.1875 0.13732 0.25268 0.26709 0.50463 0.40625 0.75 0.22094 0.38817 0.43042 0.75512 0.65625 1.125 0.12634 0.20752 0.27809 0.42237 0.40625 0.625 0.24537 0.38574 0.46728 0.76001 0.71875 1.125 0.12329 0.17823 0.24987 0.35791 0.375 0.53125 0.26611 0.36865 0.53906 0.71826 0.8125 1.0625 0.10864 0.13671 0.23388 0.2732 0.34375 0.40625 0.29174 0.35157 0.57592 0.70899 0.875 1.0312 0.10681 0.11597 0.20512 0.20138 0.3125 0.3125 0.31371 0.32349 0.64587 0.64697 0.96875 0.9375 0.0922 0.0842 0.18725 0.1682 0.28125 0.25 0.34728 0.29906 0.70362 0.58253 1.0625 0.84375 0.0726 0.0537 0.14545 0.10375 0.21875 0.15625v-53.406c2.4779-5.9788 4.8612-12.15 7.1875-18.312v71.312c0.39878-0.38384 0.79528-0.77942 1.1875-1.2188 0.31206-0.34954 0.62935-0.74156 0.9375-1.125-0.31051 0.38741-0.62299 0.77227-0.9375 1.125-0.39001 0.43739-0.79096 0.8367-1.1875 1.2188-0.99915 0.96263-2.017 1.7574-3.0625 2.3438 36.845 7.2625 43.186-120.39 81.969-135.88-16.232-3.495-28.053 10.806-37.688 31.344v-13c-2.4934-4.0796-5.4595-7.1055-9.0312-8.8438v44.156c-2.6768 7.4475-5.199 15.1-7.6562 22.656v-68.062c-0.33468 0.35491-0.69741 0.72315-1.0312 1.125 0.46534-0.56138 0.93915-1.0933 1.4062-1.5625-38.951 1.5759-42.944 118.04-71.625 116.84zm313.25-167.09c-0.24047 0.0623-0.48316 0.1706-0.71875 0.25-45.311 15.475-53.044 212.46-94.594 224.69-0.0592 0.017-0.1282 0.0141-0.1875 0.0312 0.0611 0.0256 0.1265 0.0693 0.1875 0.0937 60.972 24.462 73.98-191.37 95-224.56 0.0977-0.15381 0.2136-0.35229 0.3125-0.5zm-77.625 12.344c-46.454-0.63392-43.177 197.29-85.062 202.84 62.632 3.4058 60.715-180.97 86.156-202.78-0.37199-0.0298-0.72797-0.0575-1.0938-0.0625zm-172.56 51.375c-0.28205 0.58006-0.56136 1.1785-0.84375 1.7812v80.312c-2.1198 5.91-4.274 11.355-6.4688 16.062v-81.031c2.4735-6.317 4.8936-12.148 7.3125-17.125zm-12.04 106.9c-0.53442 0.82207-1.0794 1.5918-1.625 2.3125 0.54784-0.72162 1.0883-1.489 1.625-2.3125z" fill="#a5a5a5"/><path d="m138.79 506.86c36.515-4.4398 26.91 125.84 63.42 127.48 5.4828 0.24536 7.9876-2.638 7.9876-2.633-32.082-8.2044-23.244-153.11-72.789-127.89l1.3806 3.0481zm417.42 84.965c19.811 54.112 44.398 101.74 87.802 102.04-27.162-15.188-47.554-72.282-68.936-129.44-7.0508 9.2725-13.332 16.878-18.866 27.395zm-29.51 62.58c13.742 19.669 33.092 37.915 52.188 38.835-23.42 5.5005-45.488-3.1519-61.65-16.191 2.9834-5.9131 6.0254-16.956 9.4629-22.644zm-46.83-201.05c30.745-8.966 49.02 57.96 54.97 75.399 3.523-13.472 7.7808-26.171 11.266-34.974-9.1273-18.746-42.358-75.998-66.293-40.438-0.0146 0.022-9e-3 0.0135-0.0244 0.0354 0.0233-6e-3 0.0745-0.0208 0.0817-0.0233zm-389.52 18.338c-9.1288-30.038-53.605-21.662-73.904 25.688-8.59 20.025-3.4045 49.875 15.005 51.85 18.278 1.9544 63.08-25.884 94.562-40.154l0.99305 2.2472c-40.202 31.22-156.88 86.395-95.096-21.715 11.522-20.162 41.856-50.915 58.439-17.915zm-49.802-31.95c103.36-114.51 411.66-147.7 512.75-151.59-3.8868 10.077-9.6631 14.556-12.739 19.656-78.036 1.9201-373.36 30.325-489.71 125.94-3.5412 1.3806-7.2339 3.7512-10.294 5.9912zm336.58 122.49v110.18c2.2412 2.3816 4.6198 4.3909 7.1649 5.9375v-153.45c3.7902-19.628 7.4872-36.824 12.047-47.952v192.05c-3.9844 5.354-9.726 10.327-16.82 9.917-60.574-3.512-56.559-154.82-83.391-180.36-1.153-1.0962-2.4988-2.0996-3.971-2.7259 1.7738-1.0327 6.33-1.6223 9.0576-1.5661 35.605 0.72754 39.414 106.93 63.865 159.3v-41.606c4.7803-15.458 8.6304-32.665 12.047-49.729zm58.612-52.331v35.481c-4.0918 16.229-8.0176 33.029-12.047 49.021v-110.62c-2.7014-4.6972-5.4516-8.5852-8.2886-11.506v152.61c-3.739 12.433-7.6929 23.558-12.047 32.415v-191.51c3e-3 1e-3 6e-3 1e-3 9e-3 1e-3 -4e-3 0-9e-3 -1e-3 -0.0125-1e-3 -0.0226-4e-3 -0.0385-6e-3 -0.0623-0.01 0.0244-0.0244 0.0305-0.0305 0.0549-0.0561 3.4576-3.5938 7.4054-5.741 11.979-6.0828 34.866-2.6062 57.636 76.17 85.888 142.72-8.3985 6.2036-11.223 16.429-11.675 21.378-0.4419 4.8279 0.78979 11.624-2.0105 15.44-22.281-39.828-37.268-92.562-51.788-129.29zm-187.37-11.86c54.431-4.7498 25.025 147.31 69.59 170.54-66.292 2.1692-33.405-164.74-79.802-164.92 2.0905-2.1985 6.3916-5.2771 10.212-5.6104z" fill="#953734"/><path d="m27.782 611.49c103.7-139.25 419-177.25 535.91-181.85" fill="none"/><g transform="translate(5.731 -211.1)" fill="#a5a5a5" stroke="#7f7f7f" stroke-width="2.5" aria-label="OpenCOR"><path d="m40.704 489.82q1.3438-1.7154 2.6876-3.4309 1.4059-1.7629 2.9066-3.4016 1.5628-1.6862 3.2387-2.9671 3.6001-2.7516 7.3785-3.0829 3.8405-0.37874 7.2168 1.4656 3.3909 1.7348 5.8579 4.9625 3.8428 5.0277 6.9621 12.968 3.1339 7.8312 4.8438 17.144 1.7099 9.3129 1.6711 18.782-0.10164 12.861-5.1203 24.563-5.004 11.593-12.328 17.191-5.4001 4.1275-11.789 4.3888-6.3739 0.1518-13.002-3.6317-6.6139-3.8931-12.402-11.466-7.7805-10.18-10.037-24.582-2.2416-14.511-0.10983-29.219 2.1464-14.817 6.9788-26.377 4.785-11.622 10.185-15.75 4.407-3.3684 8.8531-2.4401 4.3987 0.86623 11.049 5.3215-5.6302 4.5983-8.9643 9.1133-3.3815 4.4528-6.077 10.446zm-6.011 24.556q-0.78677 7.9762 0.38977 18.778 1.1912 10.693 3.8685 19.856t5.5238 12.888q7.0689 9.2485 15.697 2.654 6.0208-4.6019 9.3027-19.992 3.3439-15.437 1.6285-32.219-1.7008-16.891-8.8645-26.264-5.2661-6.8898-10.728-2.7149-4.2208 3.2261-7.7418 11.227-3.521 8.0012-4.4106 18.416-0.27834 3.7527 0.46687 16.95-3.3423-6.6886-5.1316-19.579z"/><path d="m108.23 519.85-2.4095-4.9093q4.5866-15.479 7.0576-28.354 2.5411-12.909 3.9597-20.48t3.4731-11.365q2.0201-3.8634 6.7892-6.204 2.3845-1.1703 3.2795 0.65314 0.72285 1.4728 0.17039 5.3121-0.48233 3.8048-2.0179 8.3007-2.07 5.8895-3.0015 13.744-0.89581 7.75-1.2258 19.312 2.3415-4.8044 5.2888-11.211 2.983-6.5116 4.9674-10.27 2.0201-3.8634 4.3818-6.676 2.4319-2.8471 5.5177-4.3616 1.9637-0.9638 2.869-0.53784 0.97542 0.39155 1.9736 2.4254 2.616 5.3301 2.5338 11.723-0.1166 6.3232-2.2709 14.169-2.1543 7.8455-6.071 17.774 2.9022-0.29302 5.4971-1.5666 8.1355-3.9929 15.719-23.119l2.4783 5.0496q-2.9895 7.3851-6.0439 14.106-2.9843 6.6863-6.2337 11.414-3.2494 4.7278-7.0366 6.5865-1.4027 0.68843-3.1878 1.1295-1.6806 0.47673-3.2197 0.70994-1.5735 0.16307-4.0905 0.35411-2.517 0.19104-3.8113 0.39112-1.9689 1.6626-2.2494 1.8002-2.4547 1.2048-6.7147 0.85882-0.11143 5.6244 0.5598 14.085 0.77577 8.496 0.94746 13.633 0.17168 5.1374-1.0912 10.544-0.8928 2.6139-1.5941 2.9581-3.0157 1.4801-5.6318-3.85-2.2718-4.6288-2.8566-10.608-0.62045-5.8744-0.0882-11.705 0.4621-5.7965 1.4508-11.939 0.95433-6.2122 1.1854-9.1105 1.7184-24.515 1.3157-40.939-6.4927 27.554-10.569 40.172zm30.161-10.539q3.3634-10.702 4.217-17.474 0.92378-6.8064-0.41865-9.5416-1.2736-2.5949-3.8685-1.3214-3.5067 1.7211-7.0318 10.674-3.4894 8.8489-5.4032 21.972 4.9145-3.1082 6.7711-3.7584 1.8222-0.72027 5.7342-0.55161z"/><path d="m179.6 482.83 0.69671 1.8246q1.6442 4.3061 4.6804 5.9065t6.4666 0.29054q3.5763-1.3656 6.7306-4.4934 3.2273-3.1557 5.9635-7.3783 2.7362-4.2226 6.4266-10.984l1.7 4.4521q-4.4573 13.075-9.6485 21.162-5.219 8.0139-12.664 10.856-6.4957 2.4803-12.214-1.1066-5.7182-3.5868-9.0623-12.345-2.9262-7.6635-1.7187-15.233 1.1796-7.6423 6.6335-17.669 3.7355-6.862 8.2897-11.361t8.8604-6.1429q3.4303-1.3098 6.014-0.45657 2.6288 0.75239 3.8272 3.8908 1.7557 4.5981 0.0811 10.506-1.7025 5.8349-7.0542 13.063-5.3066 7.1275-14.009 15.217zm-1.0816-5.0227q5.5933-5.0626 8.8152-10.641t4.1017-9.8452q0.92487-4.3672 0.31177-5.9729-0.64097-1.6787-2.1737-1.0934-1.3137 0.50162-3.6652 3.3229-2.2784 2.7934-4.3127 6.6643-1.9613 3.8431-2.9764 8.412-1.0151 4.5689-0.10074 9.1538z"/><path d="m258.37 438.35q-8.6128 18.691-6.8357 24.438 0.99241 3.2094 3.6048 2.4017 2.1645-0.6693 4.9055-3.9701 2.7925-3.3985 8.3815-11.505l1.5925 5.15q-7.3675 13.727-11.609 20.108-4.2416 6.3816-7.8242 7.4894-6.1203 1.8925-8.6129-6.1684-0.73854-2.3884-0.70761-4.933 0.0309-2.5446 0.53816-5.4 0.55879-2.9531 1.8148-8.4116 1.233-5.5331 2.9177-12.514-3.5851 3.48-8.0192 11.884-2.9334 5.3229-4.7135 9.8803-1.8031 4.4827-3.777 9.9996-1.9224 5.4192-3.0051 7.4712-1.0312 1.9543-2.5986 2.439-2.3884 0.73854-5.95-3.6391-3.5616-4.3776-5.6156-11.02-1.2694-4.1051-1.0892-6.6958 0.25484-2.6138 1.7009-7.7221 2.7036-9.5041 5.3047-14.315 2.5779-4.8859 6.0113-5.9475 2.3884-0.73853 4.0604-0.35602 1.7466 0.35944 2.2775 2.0761 0.2308 0.74638 0.0368 1.7059-0.19396 0.9595-0.58335 1.8159-0.31475 0.8333-1.506 3.3278-7.754 16.708-6.5538 20.589 0.6693 2.1645 2.0874 1.726 0.89566-0.27695 2.5564-3.8979 1.7122-3.7187 4.3118-9.5925 2.6511-5.9716 6.605-12.755 4.0285-6.8064 9.6651-13.701 3.1019-3.9848 5.7142-4.7926 1.1942-0.36927 3.3293 2.5686 2.2097 2.9148 3.2483 6.2735 0.50775 1.642-1.6631 5.9932z"/><path d="m364.53 427.11 1.1396 4.9486q-9.5118 17.182-18.125 28.866-8.5197 11.743-17.582 19.04-9.0447 7.374-18.561 9.5655-8.2223 1.8934-14.914-0.0128-6.6161-1.9238-11.116-7.5415-4.4068-5.5591-6.3878-14.162-1.5603-6.7758-1.1643-14.804 0.45467-8.1217 2.7951-16.758 2.3229-8.7122 6.3678-18.302 4.121-9.6073 10.105-20.525 6.2182-11.293 12.804-19.944 6.5683-8.7278 12.298-14.136 5.7294-5.408 10.925-8.6087 5.2716-3.2182 9.0021-4.0772 3.8066-0.87659 6.892 0.33698t5.3384 4.3826q2.253 3.169 3.3049 7.7369 1.9811 8.603-1.4442 20.535-3.4428 11.856-9.9365 23.693-6.4936 11.837-13.05 19.921-6.4977 7.99-9.9998 8.7965-2.3601 0.54348-4.8364-0.81034-2.4177-1.4475-2.9612-3.8076-0.99931-4.3396 2.1486-11.558 3.224-7.2362 7.4548-13.582 4.2894-6.4393 5.3552-6.6847 0.53293-0.12273 0.63812 0.33407 0.15778 0.68519-0.29398 2.553-0.37562 1.8502-0.28796 2.2309 0.14025 0.60906 0.59704 0.50387 1.2943-0.29804 5.8656-8.6462 4.5713-8.3481 7.7613-17.821 3.2485-9.5667 2.0213-14.896-0.50842-2.2078-1.7611-3.1219-1.1941-1.0077-3.0974-0.56944-5.3293 1.2272-14.218 12.413-8.8297 11.092-17.164 27.122-8.2757 15.935-12.611 31.925-4.3348 15.99-1.8453 26.801 1.4376 6.2429 4.229 10.009 2.8676 3.749 6.9717 5.209 4.1803 1.4425 9.2812 0.26783 11.039-2.5421 23.066-14.371 12.027-11.829 24.996-32.452z" fill="#366092" stroke="#244061" stroke-width="2.5"/><path d="m415.43 363.58q1.9995-0.8663 3.999-1.7326 2.0767-0.87837 4.1776-1.6024 2.178-0.73607 4.2621-1.0621 4.4768-0.70027 7.9554 0.81155 3.5557 1.4998 5.6428 4.7317 2.1522 3.1426 2.78 7.1564 0.97797 6.2521-0.0699 14.719-0.98274 8.3775-3.924 17.378-2.9413 9.0002-7.494 17.304-6.2262 11.254-16.221 19.143-9.9295 7.8001-19.037 9.2248-6.7152 1.0504-12.454-1.7684-5.6738-2.9081-9.6936-9.3961-3.9546-6.5772-5.4276-15.994-1.9801-12.659 2.9094-26.392 4.9546-13.822 13.846-25.73 8.9567-11.997 18.72-19.85 9.7509-7.9303 16.466-8.9808 5.4802-0.85723 8.9446 2.0802 3.4522 2.8602 7.1706 9.9489-7.1421 1.3544-12.226 3.7312-5.0965 2.2996-10.325 6.2805zm-17 18.711q-4.4975 6.6341-8.6182 16.689-4.0556 9.9652-6.0754 19.296-2.0198 9.3305-1.2954 13.962 1.799 11.501 12.528 9.8225 7.4871-1.1712 17.715-13.13 10.305-11.971 16.806-27.537 6.5656-15.656 4.7425-27.311-1.3402-8.5677-8.1326-7.5052-5.2487 0.82101-12.161 6.1723-6.9123 5.3513-12.664 14.079-2.0353 3.1651-7.6777 15.118 0.25443-7.4728 4.833-19.655z"/><path d="m518.79 425.21-30.575-11.804q-9.8926 16.296-10.795 21.314-0.63343 3.5829-3.7022 6.1987-2.9843 2.6869-4.3854 2.8072-3.9698 0.34073-4.2303-2.695-0.14699-1.7125 3.8285-10.209 4.0467-8.5806 11.349-20.342-4.7528-1.474-5.896-2.0031t-1.0567-2.2617q0.0799-1.8103 2.25-5.7604 1.8989-3.4563 2.8951-4.6396 0.98953-1.2611 2.415-2.0108 1.4188-0.82749 3.0334-1.2013 1.6146-0.37382 9.0848-1.9559 5.4344-8.8565 11.767-19.123 6.4106-10.273 9.9972-15.992-12.08 2.6835-16.813 4.1875-5.0505 1.4528-8.4931 2.454-3.3715 0.91668-4.7258 1.5818-1.361 0.58729-1.2808 1.5214 0.0735 0.85623 1.8127 1.0206 1.7392 0.16438 4.3078-0.0561 2.6465-0.22715 4.0677-0.11389 1.4923 0.0287 1.5524 0.72929 0.0668 0.77839-1.8658 1.1011-1.8614 0.23818-10.624 1.3823-4.9683 0.58326-8.3799 1.0329-3.3337 0.44296-4.657 0.55654-1.7903 0.15366-2.8957-0.84923t-1.2591-2.7932q-0.11358-1.3233 1.058-5.0308 1.1716-3.7075 3.582-7.5998 2.4104-3.8923 5.7394-6.2167 3.7627-2.7537 11.884-5.8816 8.1928-3.2124 18.263-5.5665 10.141-2.4387 20.182-3.3005 6.0714-0.52111 11.892-0.31496 5.898 0.19948 10.655 0.81053 4.835 0.60437 7.6462 1.3824 7.2838 1.7272 11.428 6.1547 4.2216 4.4208 4.7094 10.103 0.47435 5.5266-1.0173 10.987-1.4205 5.3755-5.0028 10.231-3.5111 4.7709-8.7972 8.0474-4.3142 2.7227-13.292 5.924-8.9779 3.2014-21.817 6.1852t-28.8 5.2164q12.348 3.1744 23.068 6.567 10.791 3.308 18.162 6.0472 7.4418 2.6546 11.67 4.4088 5.9361 2.4702 7.7621 3.6464 1.826 1.1763 2.5513 3.2312 0.72525 2.0549 1.1395 6.8809 0.46767 5.4487-0.0124 8.0775-0.39556 2.7-2.575 2.887-0.70055 0.0601-3.8699-1.2361-3.0848-1.2251-8.6317-3.7286-5.5402-2.4257-10.093-4.3089-4.4816-1.9677-14.21-5.6806zm0.81692-70.876q0.12461 0.53819 0.16469 1.0052 0.11793 0.46035 0.19142 1.3166 0.18706 2.1795-0.96684 5.1798-1.0828 2.9158-3.0017 6.1386-1.8478 3.1383-5.6479 9.1101-3.729 5.8873-6.9087 10.865 16.079-4.5166 27.352-8.3854 11.351-3.8755 18.576-7.3969 7.2186-3.5992 10.681-7.1113 3.5335-3.5966 3.2329-7.0993-0.33405-3.8919-8.4607-5.39-8.0555-1.5826-19.498-0.60045-2.3352 0.20043-4.9683 0.58326-2.562 0.29831-6.187 1.0015-3.5539 0.61868-4.5591 0.78337z" fill="#953734" stroke="#632423" stroke-width="2.5"/></g></svg>
